<svg width="32" height="44" viewBox="0 0 32 44" fill="none" xmlns="http://www.w3.org/2000/svg">
<path d="M9 5.99999V29.9999C9 31.0608 9.36875 32.0782 10.0251 32.8284C10.6815 33.5785 11.5717 33.9999 12.5 33.9999H26.5C27.4283 33.9999 28.3185 33.5785 28.9749 32.8284C29.6313 32.0782 30 31.0608 30 29.9999V12.484C29.9999 11.9511 29.9067 11.4236 29.7258 10.9325C29.5449 10.4413 29.2799 9.99647 28.9465 9.62399L23.1453 3.14C22.4914 2.40931 21.6133 2.00013 20.6988 2H12.5C11.5717 2 10.6815 2.42143 10.0251 3.17157C9.36875 3.92171 9 4.93913 9 5.99999V5.99999Z" stroke="#473981" stroke-width="4" stroke-linecap="round" stroke-linejoin="round"/>
<path d="M23 34V38C23 39.0608 22.6313 40.0783 21.9749 40.8284C21.3185 41.5785 20.4283 42 19.5 42H5.5C4.57174 42 3.6815 41.5785 3.02513 40.8284C2.36875 40.0783 2 39.0608 2 38V16C2 14.9391 2.36875 13.9217 3.02513 13.1716C3.6815 12.4214 4.57174 12 5.5 12H9" stroke="#473981" stroke-width="4" stroke-linecap="round" stroke-linejoin="round"/>
</svg>
